# Blender v2.79 (sub 0) OBJ File: 'PinballTABLEONLY.blend'
# www.blender.org
mtllib BottomPart.mtl
o BottomVery_Cube.029
v 2.172812 0.000000 2.765230
v 2.172812 0.500000 2.765230
v 2.172812 0.500000 4.099230
v 2.172812 0.000000 4.099230
v -3.227188 0.000000 4.099231
v -3.227188 0.000000 2.785586
v -1.792874 0.000000 3.613687
v -1.792874 0.000000 3.616171
v -1.349811 0.000000 3.616171
v 0.207126 0.000000 3.616170
v 0.650189 0.000000 3.616170
v 0.650189 0.000000 3.613899
v 2.120128 0.000000 2.765230
v 2.120128 0.500000 2.765230
v -3.227188 0.500000 4.099231
v 0.650189 0.500000 3.613899
v 0.650189 0.500000 3.616170
v 0.207126 0.500000 3.616170
v -1.349811 0.500000 3.616171
v -1.792874 0.500000 3.616171
v -1.792874 0.500000 3.613687
v -3.227188 0.500000 2.785586
vt 0.337045 0.333334
vt 0.671071 0.666667
vt 0.337045 0.666667
vt 0.459093 0.211995
vt 0.459093 0.239344
vt 0.337045 0.333333
vt 0.902700 0.000000
vt 0.899412 0.333333
vt 0.899412 0.000000
vt 0.337045 0.666667
vt 0.247521 0.545962
vt 0.247521 0.545341
vt 0.000000 0.000000
vt 0.337045 0.333333
vt 0.000000 0.333333
vt 1.000000 0.333333
vt 0.671071 0.666667
vt 0.671071 0.333333
vt 0.000000 1.000000
vt 0.219307 0.666667
vt 0.219307 1.000000
vt 0.219929 0.666667
vt 0.219929 1.000000
vt 0.337045 1.000000
vt 0.364699 0.666667
vt 0.364699 1.000000
vt 0.674090 0.333333
vt 0.898844 0.000000
vt 0.898844 0.333333
vt 0.461876 0.666667
vt 0.899412 0.000000
vt 0.899412 0.333333
vt 0.489530 1.000000
vt 0.461876 1.000000
vt 0.671071 0.333333
vt 0.337045 0.000000
vt 0.668947 0.000000
vt 0.459721 0.088538
vt 0.459093 0.088538
vt 0.459093 0.115887
vt 0.674090 0.330081
vt 0.674090 0.333333
vt 0.459667 0.239344
vt 0.902700 0.333333
vt 0.000000 0.666667
vt 0.000000 0.333333
vt 0.095036 0.545395
vt 0.003288 0.333333
vt 0.095036 0.545962
vt 0.122690 0.545962
vt 0.219867 0.545962
vt 0.337045 0.338419
vt 0.337045 0.000000
vt 1.000000 0.666667
vt 0.000000 0.666667
vt 0.337045 0.666667
vt 0.674090 0.000000
vt 0.489530 0.666667
vn 1.0000 0.0000 -0.0000
vn 0.0000 -1.0000 0.0000
vn 0.0000 0.0000 -1.0000
vn 0.0000 1.0000 0.0000
vn 0.0000 0.0000 1.0000
vn -1.0000 0.0000 0.0000
vn 0.5000 0.0000 -0.8660
vn -0.5000 0.0000 -0.8660
vn -1.0000 0.0000 0.0001
usemtl BottomVery
s off
f 2/1/1 4/2/1 1/3/1
f 10/4/2 11/5/2 4/6/2
f 2/7/3 13/8/3 14/9/3
f 15/10/4 20/11/4 21/12/4
f 3/13/5 5/14/5 4/15/5
f 5/16/6 22/17/6 6/18/6
f 6/19/7 21/20/7 7/21/7
f 7/21/1 20/22/1 8/23/1
f 8/24/3 19/25/3 9/26/3
f 14/27/8 12/28/8 16/29/8
f 18/30/3 9/26/3 19/25/3
f 16/29/9 11/31/9 17/32/9
f 18/30/3 11/33/3 10/34/3
f 2/1/1 3/35/1 4/2/1
f 5/36/2 6/37/2 7/38/2
f 8/39/2 9/40/2 5/36/2
f 9/40/2 10/4/2 5/36/2
f 5/36/2 7/38/2 8/39/2
f 13/41/2 1/42/2 12/43/2
f 1/42/2 4/6/2 12/43/2
f 12/43/2 4/6/2 11/5/2
f 5/36/2 10/4/2 4/6/2
f 2/7/3 1/44/3 13/8/3
f 3/45/4 2/46/4 16/47/4
f 2/46/4 14/48/4 16/47/4
f 3/45/4 16/47/4 17/49/4
f 18/50/4 19/51/4 15/10/4
f 19/51/4 20/11/4 15/10/4
f 17/49/4 18/50/4 3/45/4
f 15/10/4 3/45/4 18/50/4
f 21/12/4 22/52/4 15/10/4
f 3/13/5 15/53/5 5/14/5
f 5/16/6 15/54/6 22/17/6
f 6/19/7 22/55/7 21/20/7
f 7/21/1 21/20/1 20/22/1
f 8/24/3 20/56/3 19/25/3
f 14/27/8 13/57/8 12/28/8
f 18/30/3 10/34/3 9/26/3
f 16/29/9 12/28/9 11/31/9
f 18/30/3 17/58/3 11/33/3
