# Blender v2.79 (sub 0) OBJ File: 'Pinball3.blend'
# www.blender.org
mtllib Flipper.mtl
o Flipper2S.001_Cube.012
v 0.022089 0.000000 0.886114
v 0.022089 2.000000 0.886114
v -0.877911 0.000000 -0.913886
v -0.877911 2.000000 -0.913886
v 0.922089 0.000000 0.886114
v 0.922089 2.000000 0.886114
v 0.922089 0.000000 -0.913886
v 0.922089 2.000000 -0.913886
v 0.022089 1.000000 0.886114
v -0.877911 1.000000 -0.913886
v 0.022089 0.000000 -0.913886
v 0.022089 2.000000 -0.913886
v 0.922089 1.000000 -0.913886
v 0.922089 0.000000 -0.013886
v 0.922089 2.000000 -0.013886
v 0.922089 1.000000 0.886114
v 0.022089 2.000000 -0.013886
v 0.022089 0.000000 -0.013886
v 0.922089 1.000000 -0.013886
v 0.022089 1.000000 -0.913886
vt 0.000000 0.477457
vt 0.111111 0.000000
vt 0.111111 0.477457
vt 0.333333 0.000000
vt 0.444444 0.213526
vt 0.333333 0.213526
vt 0.333333 0.854102
vt 0.222222 0.640577
vt 0.333333 0.640577
vt 0.555556 0.427051
vt 0.444445 0.213525
vt 0.555556 0.213525
vt 0.111111 0.786474
vt 0.222222 1.000000
vt 0.111111 1.000000
vt 0.000000 0.786474
vt 0.000000 1.000000
vt 0.000000 0.572949
vt 0.666667 0.000000
vt 0.666667 0.427051
vt 0.666667 0.213525
vt 0.111111 0.572949
vt 0.222222 0.477457
vt 0.222222 0.572949
vt 0.000000 0.572949
vt 0.222222 0.427051
vt 0.333333 0.427051
vt 0.444444 0.640577
vt 0.444444 0.427051
vt 0.444445 0.854102
vt 0.333333 0.427051
vt 0.222222 0.213526
vt 0.222222 0.427051
vt 0.222222 0.000000
vt 0.222222 0.000000
vt 0.000000 0.000000
vt 0.444444 0.000000
vt 0.222222 0.854102
vt 0.444445 0.427051
vt 0.222222 0.786474
vn -0.8944 0.0000 0.4472
vn 0.0000 0.0000 -1.0000
vn 1.0000 0.0000 0.0000
vn 0.0000 -1.0000 0.0000
vn 0.0000 1.0000 0.0000
vn 0.0000 0.0000 1.0000
usemtl BottomVery
s off
f 2/1/1 10/2/1 9/3/1
f 12/4/2 13/5/2 20/6/2
f 15/7/3 16/8/3 19/9/3
f 14/10/4 1/11/4 18/12/4
f 17/13/5 6/14/5 15/15/5
f 12/16/5 15/15/5 8/17/5
f 4/18/5 17/13/5 12/16/5
f 3/19/4 18/12/4 1/11/4
f 7/20/4 18/12/4 11/21/4
f 16/22/6 1/23/6 5/24/6
f 6/25/6 9/3/6 16/22/6
f 19/9/3 5/26/3 14/27/3
f 13/28/3 14/27/3 7/29/3
f 8/30/3 19/9/3 13/28/3
f 20/6/2 7/29/2 11/31/2
f 10/32/2 11/31/2 3/33/2
f 4/34/2 20/6/2 10/32/2
f 9/3/1 3/35/1 1/23/1
f 2/1/1 4/36/1 10/2/1
f 12/4/2 8/37/2 13/5/2
f 15/7/3 6/38/3 16/8/3
f 14/10/4 5/39/4 1/11/4
f 17/13/5 2/40/5 6/14/5
f 12/16/5 17/13/5 15/15/5
f 4/18/5 2/40/5 17/13/5
f 3/19/4 11/21/4 18/12/4
f 7/20/4 14/10/4 18/12/4
f 16/22/6 9/3/6 1/23/6
f 6/25/6 2/1/6 9/3/6
f 19/9/3 16/8/3 5/26/3
f 13/28/3 19/9/3 14/27/3
f 8/30/3 15/7/3 19/9/3
f 20/6/2 13/5/2 7/29/2
f 10/32/2 20/6/2 11/31/2
f 4/34/2 12/4/2 20/6/2
f 9/3/1 10/2/1 3/35/1
o Flipper2S_Cube.007
v 0.000000 1.000000 1.000000
v 0.000000 2.000000 1.000000
v -1.000000 2.000000 -1.000000
v -1.000000 1.000000 -1.000000
v 0.000000 0.000000 1.000000
v -1.000000 0.000000 -1.000000
v 1.000000 1.000000 1.000000
v 1.000000 2.000000 1.000000
v 0.000000 2.000000 -1.000000
v 0.000000 2.000000 0.841936
v -0.877911 2.000000 -0.913886
v 0.000000 2.000000 -0.913886
v 0.000000 1.000000 -1.000000
v 0.000000 0.000000 -1.000000
v 0.000000 0.000000 -0.913886
v -0.877911 0.000000 -0.913886
v 0.000000 0.000000 0.841936
v 1.000000 0.000000 1.000000
v 1.000000 1.000000 0.000000
v 1.000000 2.000000 0.000000
v 0.922089 2.000000 0.000000
v 0.922089 2.000000 0.886114
v 0.022089 2.000000 0.886114
v 1.000000 2.000000 -1.000000
v 0.022089 2.000000 -0.913886
v 0.922089 2.000000 -0.913886
v 0.922089 2.000000 -0.013886
v 1.000000 1.000000 -1.000000
v 1.000000 0.000000 -1.000000
v 1.000000 0.000000 0.000000
v 0.922089 0.000000 0.000000
v 0.922089 0.000000 -0.013886
v 0.922089 0.000000 -0.913886
v 0.022089 0.000000 -0.913886
v 0.022089 0.000000 0.886114
v 0.922089 0.000000 0.886114
v 0.022089 1.499999 0.886114
v -0.877911 1.499999 -0.913886
v 0.922089 1.499999 0.886114
v 0.022089 1.499999 -0.913886
v 0.922089 1.499999 -0.013886
v 0.922089 1.499999 -0.913886
vt 0.000000 0.477457
vt 0.166667 0.000000
vt 0.166667 0.477457
vt 0.333333 0.000000
vt 0.333333 0.477457
vt 0.000000 0.572949
vt 0.166667 0.572949
vt 0.000000 0.572949
vt 0.306989 0.786474
vt 0.014352 0.599018
vt 0.333333 0.000000
vt 0.500000 0.213526
vt 0.333333 0.213526
vt 0.693011 0.213525
vt 0.666667 0.213525
vt 1.000000 0.000000
vt 0.333333 0.572949
vt 0.500000 0.427051
vt 0.333333 0.427051
vt 0.500000 0.854102
vt 0.333333 0.640577
vt 0.500000 0.640577
vt 0.314352 0.983364
vt 0.314352 0.791191
vt 0.333333 0.786474
vt 0.164352 0.983364
vt 0.166667 1.000000
vt 0.014352 0.983364
vt 0.500000 0.000000
vt 0.666667 0.213526
vt 0.835648 0.410415
vt 0.985648 0.410415
vt 0.833333 0.427051
vt 0.666667 0.427051
vt 0.685648 0.410415
vt 0.333333 0.427051
vt 0.500000 0.427051
vt 0.666667 0.427051
vt 0.666667 0.854102
vt 0.666667 0.640577
vt 0.000000 0.000000
vt 0.014352 0.786474
vt 0.000000 0.786474
vt 1.000000 0.213525
vt 0.985648 0.026069
vt 0.985648 0.213525
vt 0.333333 0.854102
vt 0.333333 1.000000
vt 0.166667 0.983364
vt 0.000000 1.000000
vt 0.014352 0.791191
vt 0.666667 0.000000
vt 0.985648 0.218242
vt 1.000000 0.427051
vt 0.833333 0.410415
vt 0.685648 0.218242
vt 0.055556 0.000000
vt 0.027778 0.000000
vt 0.027778 0.465739
vt 0.138889 0.465739
vt 0.137177 0.125654
vt 0.137177 0.351803
vt 0.027778 0.572949
vt 0.055556 0.477457
vt 0.027778 0.477457
vt 0.333333 0.106763
vt 0.333333 0.053381
vt 0.330606 0.053381
vt 0.138889 0.477457
vt 0.133701 0.531442
vt 0.138889 0.572949
vt 0.330606 0.266907
vt 0.285037 0.256937
vt 0.270519 0.256937
vt 0.222222 0.747339
vt 0.222222 0.800721
vt 0.331619 0.800721
vt 0.444444 0.106763
vt 0.444444 0.053381
vt 0.331619 0.587195
vt 0.270519 0.597166
vt 0.285037 0.597166
vt 0.444444 0.266907
vt 0.381630 0.256937
vt 0.333333 0.266907
vt 0.444445 0.800721
vt 0.333333 0.747339
vt 0.333333 0.800721
vt 0.333333 0.587195
vt 0.396148 0.597166
vt 0.444444 0.587195
vt 0.138889 0.000000
vt 0.055556 0.572949
vt 0.222222 0.053381
vt 0.222222 0.106763
vt 0.133701 0.518964
vt 0.222222 0.266907
vt 0.222222 0.587195
vt 0.396148 0.256937
vt 0.444444 0.747339
vt 0.381630 0.597166
vn -0.8944 0.0000 0.4472
vn 0.0000 0.0000 1.0000
vn 0.0000 1.0000 0.0000
vn 0.0000 0.0000 -1.0000
vn 0.0000 -1.0000 0.0000
vn 1.0000 0.0000 0.0000
vn 0.8944 0.0000 -0.4472
vn -1.0000 0.0000 0.0000
usemtl Flipper2S
s off
f 22/41/7 24/42/7 21/43/7
f 21/43/7 26/44/7 25/45/7
f 28/46/8 21/43/8 27/47/8
f 23/48/9 30/49/9 31/50/9
f 23/51/10 33/52/10 24/53/10
f 37/54/11 25/55/11 26/56/11
f 27/47/8 25/45/8 38/57/8
f 24/53/10 34/58/10 26/59/10
f 40/60/12 27/61/12 39/62/12
f 42/63/9 43/64/9 22/65/9
f 47/66/9 40/67/9 46/68/9
f 29/69/10 48/70/10 33/52/10
f 52/71/11 53/72/11 50/73/11
f 38/74/11 25/55/11 56/75/11
f 39/62/12 38/76/12 50/77/12
f 33/52/10 49/78/10 34/58/10
f 44/79/12 39/62/12 48/80/12
f 48/80/12 50/77/12 49/78/12
f 22/41/7 23/81/7 24/42/7
f 21/43/7 24/42/7 26/44/7
f 28/46/8 22/41/8 21/43/8
f 32/82/9 29/83/9 31/50/9
f 29/83/9 23/48/9 31/50/9
f 23/48/9 22/65/9 30/49/9
f 23/51/10 29/69/10 33/52/10
f 26/56/11 34/84/11 36/85/11
f 34/84/11 35/86/11 36/85/11
f 36/85/11 37/54/11 26/56/11
f 27/47/8 21/43/8 25/45/8
f 24/53/10 33/52/10 34/58/10
f 40/60/12 28/87/12 27/61/12
f 28/88/9 40/67/9 42/63/9
f 40/67/9 41/89/9 42/63/9
f 43/64/9 30/49/9 22/65/9
f 28/88/9 42/63/9 22/65/9
f 44/90/9 29/83/9 46/68/9
f 29/83/9 32/82/9 45/91/9
f 45/91/9 46/68/9 29/83/9
f 41/89/9 40/67/9 47/66/9
f 40/67/9 44/90/9 46/68/9
f 29/69/10 44/92/10 48/70/10
f 35/86/11 34/84/11 54/93/11
f 34/84/11 49/94/11 53/72/11
f 54/93/11 34/84/11 53/72/11
f 49/94/11 50/73/11 53/72/11
f 50/73/11 51/95/11 52/71/11
f 56/75/11 51/95/11 50/73/11
f 25/55/11 37/54/11 55/96/11
f 56/75/11 50/73/11 38/74/11
f 25/55/11 55/96/11 56/75/11
f 39/62/12 27/61/12 38/76/12
f 33/52/10 48/70/10 49/78/10
f 44/79/12 40/60/12 39/62/12
f 48/80/12 39/62/12 50/77/12
usemtl Flipper2S_GreyTexture.jpg.001
f 58/97/13 31/98/13 30/99/13
f 37/100/13 58/101/13 57/102/13
f 42/103/10 57/104/10 43/105/10
f 60/106/8 45/107/8 32/108/8
f 55/109/10 59/110/10 56/111/10
f 35/112/8 60/113/8 58/114/8
f 59/115/14 42/116/14 41/117/14
f 45/107/8 62/118/8 46/119/8
f 51/120/14 59/121/14 61/122/14
f 53/123/8 60/124/8 54/125/8
f 46/126/14 61/127/14 47/128/14
f 52/129/14 62/130/14 53/131/14
f 43/105/13 57/104/13 30/99/13
f 57/104/13 58/97/13 30/99/13
f 57/102/13 55/109/13 37/100/13
f 37/100/13 36/132/13 58/101/13
f 42/103/10 59/133/10 57/104/10
f 31/134/8 58/135/8 32/108/8
f 58/135/8 60/106/8 32/108/8
f 55/109/10 57/136/10 59/110/10
f 58/114/8 36/137/8 35/112/8
f 35/112/8 54/125/8 60/113/8
f 47/128/14 61/127/14 41/117/14
f 61/127/14 59/115/14 41/117/14
f 45/107/8 60/106/8 62/118/8
f 61/122/14 52/129/14 51/120/14
f 51/120/14 56/138/14 59/121/14
f 53/123/8 62/139/8 60/124/8
f 46/126/14 62/140/14 61/127/14
f 52/129/14 61/141/14 62/130/14
