# Blender v2.79 (sub 0) OBJ File: 'Pinball3.blend'
# www.blender.org
mtllib TriLeft.mtl
o TriangleBumper.002_Cube.011
v 0.006917 0.000000 0.248626
v -0.412963 -0.000000 0.006209
v -0.412963 -0.000000 -0.478625
v 0.006916 0.500000 0.248626
v -0.412963 0.500000 0.006209
v -0.412963 0.500000 -0.478625
v -0.369662 -0.000000 -0.503625
v 0.050218 0.000000 0.223626
v 0.050217 0.500000 0.223626
v -0.369662 0.500000 -0.503625
vt 0.000000 0.000000
vt 0.000000 0.000000
vt 0.000000 0.000000
vt 0.794930 0.795272
vt 0.436006 0.802036
vt 0.604760 0.801812
vt 0.505553 0.501619
vt 0.503084 0.497273
vt 0.503089 0.501639
vt 0.000000 0.000000
vt 0.000000 0.000000
vt 0.000000 0.000000
vt 0.503089 0.501639
vt 0.000000 0.000000
vt 0.000000 0.000000
vt 0.000000 0.000000
vt 0.000000 0.000000
vt 0.604760 0.801812
vt 0.320280 0.795275
vt 0.505543 0.497305
vt 0.503084 0.497273
vt 0.436006 0.802036
vn 0.0000 -1.0000 -0.0000
vn -0.5000 -0.0000 0.8660
vn -1.0000 -0.0000 0.0000
vn -0.0000 1.0000 0.0000
vn -0.5000 -0.0000 -0.8660
vn 0.8660 0.0000 -0.5000
vn 0.5000 0.0000 0.8660
usemtl TriangleBumper
s off
f 1/1/1 2/2/1 3/3/1
f 5/4/2 1/5/2 4/6/2
f 2/7/3 6/8/3 3/9/3
f 6/10/4 5/11/4 4/12/4
f 6/8/5 7/13/5 3/9/5
f 8/14/6 10/15/6 9/16/6
f 6/10/4 9/16/4 10/15/4
f 1/1/1 7/17/1 8/14/1
f 1/5/7 9/18/7 4/6/7
f 5/4/2 2/19/2 1/5/2
f 2/7/3 5/20/3 6/8/3
f 6/8/5 10/21/5 7/13/5
f 8/14/6 7/17/6 10/15/6
f 6/10/4 4/12/4 9/16/4
f 1/1/1 3/3/1 7/17/1
f 1/5/7 8/22/7 9/18/7
