# Blender v2.79 (sub 0) OBJ File: 'Pinball3.blend'
# www.blender.org
mtllib TriRightBump.mtl
o FlipBumper.002_Cube.012
v 0.053249 0.343750 -0.159756
v 0.053249 0.156250 -0.159756
v -0.111728 0.343750 0.125993
v -0.111728 0.156250 0.125993
v 0.111728 0.343750 -0.125993
v 0.111728 0.156250 -0.125993
v -0.053249 0.343750 0.159756
v -0.053249 0.156250 0.159756
v -0.229951 0.156250 0.330761
v -0.229951 0.343750 0.330761
v -0.171472 0.343750 0.364524
v -0.171472 0.156250 0.364524
v -0.358456 0.156250 0.553339
v -0.358457 0.343750 0.553339
v -0.299977 0.343750 0.587102
v -0.299977 0.156250 0.587102
vt 1.000000 0.000000
vt 0.750000 0.286080
vt 0.750000 0.000000
vt 0.500000 0.427840
vt 0.750000 0.222835
vt 0.750000 0.427840
vt 0.500000 0.713920
vt 0.000000 0.713920
vt 0.250000 1.000000
vt 0.000000 1.000000
vt 0.250000 0.286080
vt 0.500000 0.000000
vt 0.500000 0.286080
vt 0.250000 0.427840
vt 0.000000 0.427840
vt 0.500000 0.222835
vt 0.750000 0.000000
vt 0.250000 0.491085
vt 0.000000 0.222835
vt 0.250000 0.222835
vt 1.000000 0.286080
vt 0.750000 0.491085
vt 0.250000 1.000000
vt 0.500000 0.713920
vt 0.500000 1.000000
vt 0.500000 0.491085
vt 0.250000 0.713920
vt 0.000000 0.000000
vt 0.250000 0.000000
vt 1.000000 0.491085
vt 0.750000 0.713920
vt 0.750000 0.713920
vt 0.250000 0.713920
vt 0.250000 0.000000
vt 0.500000 0.000000
vt 0.250000 0.713920
vt 0.500000 0.713920
vt 1.000000 0.713920
vn -0.8660 -0.0000 -0.5000
vn 0.8660 0.0000 0.5000
vn 0.5000 -0.0000 -0.8660
vn -0.0000 1.0000 0.0000
vn 0.0000 -1.0000 0.0000
vn -0.5000 -0.0000 0.8660
usemtl FlipBumper.001
s off
f 2/1/1 3/2/1 1/3/1
f 7/4/2 12/5/2 8/6/2
f 8/6/2 5/7/2 7/4/2
f 6/8/3 1/9/3 5/10/3
f 7/11/4 1/12/4 3/13/4
f 4/14/5 6/8/5 8/15/5
f 11/16/2 16/17/2 12/5/2
f 3/13/4 11/18/4 7/11/4
f 4/14/5 12/19/5 9/20/5
f 4/21/1 10/22/1 3/2/1
f 13/23/6 15/24/6 14/25/6
f 10/26/4 15/27/4 11/18/4
f 9/20/5 16/28/5 13/29/5
f 9/30/1 14/31/1 10/22/1
f 2/1/1 4/21/1 3/2/1
f 7/4/2 11/16/2 12/5/2
f 8/6/2 6/32/2 5/7/2
f 6/8/3 2/33/3 1/9/3
f 7/11/4 5/34/4 1/12/4
f 4/14/5 2/33/5 6/8/5
f 11/16/2 15/35/2 16/17/2
f 3/13/4 10/26/4 11/18/4
f 4/14/5 8/15/5 12/19/5
f 4/21/1 9/30/1 10/22/1
f 13/23/6 16/36/6 15/24/6
f 10/26/4 14/37/4 15/27/4
f 9/20/5 12/19/5 16/28/5
f 9/30/1 13/38/1 14/31/1
