# Blender v2.79 (sub 0) OBJ File: 'PoolTable.blend'
# www.blender.org
mtllib PoolTri.mtl
o Cube.002_Cube.004
v -1.996535 0.250000 -5.563400
v -1.996535 -0.250000 -5.563400
v 2.003465 0.250000 -5.563400
v 2.003465 -0.250000 -5.563400
v 2.003465 0.250000 -5.762405
v -1.996535 -0.250000 -5.762406
v -1.996535 0.250000 -5.762406
v 2.003465 -0.250000 -5.762405
v 0.046654 0.250000 -2.487430
v 0.046654 -0.250000 -2.487430
v 0.219859 0.250000 -2.387430
v 0.219859 -0.250000 -2.387430
v 1.937463 0.250000 -5.762406
v 2.168403 0.250000 -5.762406
v 2.168403 -0.250000 -5.762406
v 1.937463 -0.250000 -5.762406
v -0.113179 -0.143982 -2.210591
v -0.113179 -0.250000 -2.210591
v 0.002291 -0.250000 -2.010591
v -0.113179 0.250000 -2.210591
v 0.002291 0.250000 -2.010591
v -0.215876 0.250000 -2.387430
v -0.215876 -0.250000 -2.387430
v -0.042671 0.250000 -2.487430
v -0.042671 -0.250000 -2.487430
v -1.933479 -0.250000 -5.762406
v -1.933479 -0.242118 -5.762406
v -2.164419 -0.250000 -5.762405
v -1.933479 0.250000 -5.762406
v -2.164419 0.250000 -5.762405
v 0.118253 -0.250000 -2.208701
v 0.002783 -0.250000 -2.008701
v 0.118253 0.250000 -2.208701
v 0.002783 0.250000 -2.008701
vt 0.000000 0.500000
vt 0.334442 0.000000
vt 0.334442 0.500000
vt 0.334442 0.500000
vt 0.667221 1.000000
vt 0.334442 1.000000
vt 0.667221 0.500000
vt 1.000000 0.000000
vt 1.000000 0.500000
vt 0.667221 0.500000
vt 1.000000 1.000000
vt 0.667221 1.000000
vt 0.000000 0.500000
vt 0.334442 1.000000
vt 0.000000 1.000000
vt 0.334442 0.000000
vt 0.667221 0.500000
vt 0.334442 0.500000
vt 1.000000 0.000000
vt 0.000000 1.000000
vt 0.000000 0.000000
vt 0.000000 1.000000
vt 0.000000 0.000000
vt 0.000000 0.000000
vt 1.000000 1.000000
vt 0.000000 1.000000
vt 1.000000 0.000000
vt 0.000000 1.000000
vt 0.000000 0.000000
vt 0.975528 0.654508
vt 0.793893 0.095491
vt 0.206107 0.095492
vt 1.000000 0.000000
vt 0.000000 1.000000
vt 1.000000 1.000000
vt 0.000000 1.000000
vt 1.000000 0.000000
vt 0.000000 0.000000
vt 1.000000 0.000000
vt 0.000000 1.000000
vt 0.000000 0.000000
vt 0.975528 0.654508
vt 0.793893 0.095491
vt 0.000000 0.000000
vt 1.000000 1.000000
vt 0.000000 1.000000
vt 0.975528 0.654508
vt 0.793893 0.095491
vt 0.206107 0.095492
vt 1.000000 0.000000
vt 0.000000 1.000000
vt 0.000000 0.000000
vt 0.000000 0.000000
vt 1.000000 1.000000
vt 0.000000 1.000000
vt 1.000000 0.000000
vt 0.000000 1.000000
vt 0.000000 1.000000
vt 1.000000 0.000000
vt 0.000000 1.000000
vt 0.000000 0.000000
vt 1.000000 0.000000
vt 0.000000 1.000000
vt 0.000000 0.000000
vt 0.975528 0.654508
vt 0.793893 0.095491
vt 1.000000 0.000000
vt 0.000000 0.000000
vt 0.000000 0.000000
vt 0.667221 0.000000
vt 1.000000 0.500000
vt 0.334442 0.500000
vt 0.667221 0.000000
vt 1.000000 1.000000
vt 1.000000 1.000000
vt 1.000000 1.000000
vt 0.024472 0.654509
vt 0.500000 1.000000
vt 1.000000 1.000000
vt 1.000000 0.000000
vt 1.000000 1.000000
vt 0.024472 0.654509
vt 0.500000 1.000000
vt 1.000000 0.000000
vt 0.024472 0.654509
vt 0.500000 1.000000
vt 1.000000 1.000000
vt 1.000000 1.000000
vt 1.000000 1.000000
vt 1.000000 1.000000
vt 1.000000 1.000000
vt 0.024472 0.654509
vt 0.500000 1.000000
vn 0.0000 0.0000 1.0000
vn 1.0000 0.0000 0.0000
vn 0.0000 1.0000 0.0000
vn 0.0000 -1.0000 0.0000
vn 0.0000 0.0000 -1.0000
vn -1.0000 0.0000 0.0000
vn 0.8660 0.0000 0.5000
vn -0.8660 0.0000 -0.5000
vn -0.8660 0.0000 0.5000
vn 0.8660 -0.0000 -0.5000
usemtl Triangle
s off
f 2/1/1 3/2/1 1/3/1
f 4/4/2 5/5/2 3/6/2
f 5/7/3 1/8/3 3/9/3
f 8/10/4 2/11/4 6/12/4
f 7/13/5 8/14/5 6/15/5
f 6/16/6 1/17/6 7/18/6
f 12/19/4 18/20/4 10/21/4
f 12/19/7 14/22/7 11/23/7
f 9/24/3 14/25/3 13/26/3
f 10/27/4 15/28/4 12/29/4
f 10/30/8 18/31/8 17/32/8
f 11/33/7 19/34/7 12/29/7
f 11/23/3 20/35/3 21/36/3
f 13/37/5 15/28/5 16/38/5
f 16/39/8 9/40/8 13/41/8
f 21/42/9 20/43/9 17/32/9
f 23/44/4 31/45/4 32/46/4
f 25/47/10 26/48/10 27/49/10
f 24/50/3 30/51/3 22/52/3
f 25/53/4 28/54/4 26/55/4
f 23/56/9 34/57/9 22/52/9
f 24/50/10 31/58/10 25/53/10
f 22/59/3 33/60/3 24/61/3
f 28/62/9 22/63/9 30/64/9
f 30/65/5 29/66/5 27/49/5
f 33/67/7 32/46/7 31/68/7
f 2/1/1 4/69/1 3/2/1
f 4/4/2 8/10/2 5/5/2
f 5/7/3 7/70/3 1/8/3
f 8/10/4 4/71/4 2/11/4
f 7/13/5 5/72/5 8/14/5
f 6/16/6 2/73/6 1/17/6
f 12/19/4 19/74/4 18/20/4
f 12/19/7 15/75/7 14/22/7
f 9/24/3 11/33/3 14/25/3
f 10/27/4 16/76/4 15/28/4
f 20/77/8 9/78/8 17/32/8
f 9/78/8 10/30/8 17/32/8
f 11/33/7 21/79/7 19/34/7
f 11/23/3 9/80/3 20/35/3
f 13/37/5 14/25/5 15/28/5
f 16/39/8 10/81/8 9/40/8
f 18/82/9 19/83/9 17/32/9
f 19/83/9 21/42/9 17/32/9
f 23/44/4 25/84/4 31/45/4
f 29/85/10 24/86/10 27/49/10
f 24/86/10 25/47/10 27/49/10
f 24/50/3 29/87/3 30/51/3
f 25/53/4 23/56/4 28/54/4
f 23/56/9 32/88/9 34/57/9
f 24/50/10 33/89/10 31/58/10
f 22/59/3 34/90/3 33/60/3
f 28/62/9 23/91/9 22/63/9
f 26/92/5 28/93/5 27/49/5
f 28/93/5 30/65/5 27/49/5
f 33/67/7 34/90/7 32/46/7
