# Blender v2.79 (sub 0) OBJ File: 'Pinball3.blend'
# www.blender.org
mtllib TriangleBumperLeft.mtl
o TriangleBumper.000_Cube.030
v 1.358275 0.000000 -3.242327
v 1.778154 -0.000000 -2.999910
v 1.778154 -0.000000 -2.515075
v 1.358275 0.500000 -3.242327
v 1.778154 0.500000 -2.999910
v 1.778154 0.500000 -2.515075
v 1.734853 -0.000000 -2.490076
v 1.314974 0.000000 -3.217327
v 1.314974 0.500000 -3.217327
v 1.734853 0.500000 -2.490076
vt 0.000000 0.000000
vt 0.000000 0.000000
vt 0.000000 0.000000
vt 0.794930 0.795272
vt 0.436006 0.802036
vt 0.604760 0.801812
vt 0.505553 0.501619
vt 0.503084 0.497273
vt 0.503089 0.501639
vt 0.000000 0.000000
vt 0.000000 0.000000
vt 0.000000 0.000000
vt 0.503089 0.501639
vt 0.000000 0.000000
vt 0.000000 0.000000
vt 0.000000 0.000000
vt 0.000000 0.000000
vt 0.604760 0.801812
vt 0.320280 0.795275
vt 0.505543 0.497305
vt 0.503084 0.497273
vt 0.436006 0.802036
vn -0.0000 -1.0000 0.0000
vn 0.5000 0.0000 -0.8660
vn 1.0000 -0.0000 0.0000
vn 0.0000 1.0000 0.0000
vn 0.5000 0.0000 0.8660
vn -0.8660 0.0000 0.5000
vn -0.5000 0.0000 -0.8660
usemtl TriangleBumper
s off
f 1/1/1 2/2/1 3/3/1
f 5/4/2 1/5/2 4/6/2
f 2/7/3 6/8/3 3/9/3
f 6/10/4 5/11/4 4/12/4
f 6/8/5 7/13/5 3/9/5
f 8/14/6 10/15/6 9/16/6
f 6/10/4 9/16/4 10/15/4
f 1/1/1 7/17/1 8/14/1
f 1/5/7 9/18/7 4/6/7
f 5/4/2 2/19/2 1/5/2
f 2/7/3 5/20/3 6/8/3
f 6/8/5 10/21/5 7/13/5
f 8/14/6 7/17/6 10/15/6
f 6/10/4 4/12/4 9/16/4
f 1/1/1 3/3/1 7/17/1
f 1/5/7 8/22/7 9/18/7
o FlipBumper.000_Cube.028
v 1.699146 0.156250 -2.479112
v 1.699147 0.343750 -2.479112
v 1.534169 0.156250 -2.764861
v 1.534169 0.343750 -2.764862
v 1.757626 0.156250 -2.512875
v 1.757626 0.343750 -2.512875
v 1.592648 0.156250 -2.798624
v 1.592648 0.343750 -2.798625
v 1.415946 0.343750 -2.969629
v 1.415946 0.156250 -2.969629
v 1.474425 0.156250 -3.003392
v 1.474425 0.343750 -3.003392
v 1.287441 0.343750 -3.192207
v 1.287441 0.156250 -3.192207
v 1.345920 0.156250 -3.225970
v 1.345920 0.343750 -3.225970
vt 1.000000 0.000000
vt 0.750000 0.286080
vt 0.750000 0.000000
vt 0.500000 0.427840
vt 0.750000 0.222835
vt 0.750000 0.427840
vt 0.500000 0.713920
vt 0.000000 0.713920
vt 0.250000 1.000000
vt 0.000000 1.000000
vt 0.250000 0.286080
vt 0.500000 0.000000
vt 0.500000 0.286080
vt 0.250000 0.427840
vt 0.000000 0.427840
vt 0.500000 0.222835
vt 0.750000 0.000000
vt 0.250000 0.491085
vt 0.000000 0.222835
vt 0.250000 0.222835
vt 1.000000 0.286080
vt 0.750000 0.491085
vt 0.250000 1.000000
vt 0.500000 0.713920
vt 0.500000 1.000000
vt 0.500000 0.491085
vt 0.250000 0.713920
vt 0.000000 0.000000
vt 0.250000 0.000000
vt 1.000000 0.491085
vt 0.750000 0.713920
vt 0.750000 0.713920
vt 0.250000 0.713920
vt 0.250000 0.000000
vt 0.500000 0.000000
vt 0.250000 0.713920
vt 0.500000 0.713920
vt 1.000000 0.713920
vn -0.8660 0.0000 0.5000
vn 0.8660 -0.0000 -0.5000
vn 0.5000 0.0000 0.8660
vn -0.0000 -1.0000 0.0000
vn 0.0000 1.0000 -0.0000
vn -0.5000 0.0000 -0.8660
usemtl FlipBumper.001
s off
f 12/23/8 13/24/8 11/25/8
f 17/26/9 22/27/9 18/28/9
f 18/28/9 15/29/9 17/26/9
f 16/30/10 11/31/10 15/32/10
f 17/33/11 11/34/11 13/35/11
f 14/36/12 16/30/12 18/37/12
f 21/38/9 26/39/9 22/27/9
f 13/35/11 21/40/11 17/33/11
f 14/36/12 22/41/12 19/42/12
f 14/43/8 20/44/8 13/24/8
f 23/45/13 25/46/13 24/47/13
f 20/48/11 25/49/11 21/40/11
f 19/42/12 26/50/12 23/51/12
f 19/52/8 24/53/8 20/44/8
f 12/23/8 14/43/8 13/24/8
f 17/26/9 21/38/9 22/27/9
f 18/28/9 16/54/9 15/29/9
f 16/30/10 12/55/10 11/31/10
f 17/33/11 15/56/11 11/34/11
f 14/36/12 12/55/12 16/30/12
f 21/38/9 25/57/9 26/39/9
f 13/35/11 20/48/11 21/40/11
f 14/36/12 18/37/12 22/41/12
f 14/43/8 19/52/8 20/44/8
f 23/45/13 26/58/13 25/46/13
f 20/48/11 24/59/11 25/49/11
f 19/42/12 22/41/12 26/50/12
f 19/52/8 23/60/8 24/53/8
