# Blender v2.79 (sub 0) OBJ File: ''
# www.blender.org
mtllib cylinder1.mtl
o Cylinder1_Cylinder
v 0.000000 -0.450000 -0.300000
v 0.000000 0.450000 -0.300000
v 0.058527 -0.450000 -0.294236
v 0.058527 0.450000 -0.294236
v 0.114805 -0.450000 -0.277164
v 0.114805 0.450000 -0.277164
v 0.166671 -0.450000 -0.249441
v 0.166671 0.450000 -0.249441
v 0.212132 -0.450000 -0.212132
v 0.212132 0.450000 -0.212132
v 0.249441 -0.450000 -0.166671
v 0.249441 0.450000 -0.166671
v 0.277164 -0.450000 -0.114805
v 0.277164 0.450000 -0.114805
v 0.294236 -0.450000 -0.058527
v 0.294236 0.450000 -0.058527
v 0.300000 -0.450000 -0.000000
v 0.300000 0.450000 -0.000000
v 0.294236 -0.450000 0.058527
v 0.294236 0.450000 0.058527
v 0.277164 -0.450000 0.114805
v 0.277164 0.450000 0.114805
v 0.249441 -0.450000 0.166671
v 0.249441 0.450000 0.166671
v 0.212132 -0.450000 0.212132
v 0.212132 0.450000 0.212132
v 0.166671 -0.450000 0.249441
v 0.166671 0.450000 0.249441
v 0.114805 -0.450000 0.277164
v 0.114805 0.450000 0.277164
v 0.058527 -0.450000 0.294235
v 0.058527 0.450000 0.294235
v -0.000000 -0.450000 0.300000
v -0.000000 0.450000 0.300000
v -0.058527 -0.450000 0.294235
v -0.058527 0.450000 0.294235
v -0.114805 -0.450000 0.277164
v -0.114805 0.450000 0.277164
v -0.166671 -0.450000 0.249441
v -0.166671 0.450000 0.249441
v -0.212132 -0.450000 0.212132
v -0.212132 0.450000 0.212132
v -0.249441 -0.450000 0.166671
v -0.249441 0.450000 0.166671
v -0.277164 -0.450000 0.114805
v -0.277164 0.450000 0.114805
v -0.294236 -0.450000 0.058527
v -0.294236 0.450000 0.058527
v -0.300000 -0.450000 -0.000001
v -0.300000 0.450000 -0.000001
v -0.294236 -0.450000 -0.058528
v -0.294236 0.450000 -0.058528
v -0.277164 -0.450000 -0.114806
v -0.277164 0.450000 -0.114806
v -0.249441 -0.450000 -0.166672
v -0.249441 0.450000 -0.166672
v -0.212132 -0.450000 -0.212133
v -0.212132 0.450000 -0.212133
v -0.166671 -0.450000 -0.249441
v -0.166671 0.450000 -0.249441
v -0.114805 -0.450000 -0.277164
v -0.114805 0.450000 -0.277164
v -0.058527 -0.450000 -0.294236
v -0.058527 0.450000 -0.294236
vt 0.660152 0.760744
vt 0.639902 0.243935
vt 0.656825 0.243552
vt 0.642524 0.761127
vt 0.623023 0.244220
vt 0.624839 0.761412
vt 0.606176 0.244397
vt 0.607115 0.761589
vt 0.589344 0.244459
vt 0.589371 0.761652
vt 0.572513 0.244404
vt 0.571626 0.761596
vt 0.555667 0.244233
vt 0.553900 0.761426
vt 0.538790 0.243954
vt 0.536213 0.761146
vt 0.521870 0.243577
vt 0.518581 0.760769
vt 0.504891 0.243116
vt 0.501017 0.760308
vt 0.487844 0.242589
vt 0.483534 0.759782
vt 0.470718 0.242017
vt 0.466137 0.759210
vt 0.453507 0.241422
vt 0.448831 0.758614
vt 0.436205 0.240825
vt 0.431614 0.758017
vt 0.418814 0.240251
vt 0.414483 0.757443
vt 0.401336 0.239721
vt 0.397432 0.756913
vt 0.383777 0.239256
vt 0.380450 0.756448
vt 0.366148 0.238873
vt 0.363526 0.756065
vt 0.348464 0.238588
vt 0.346647 0.755780
vt 0.330740 0.238411
vt 0.329800 0.755603
vt 0.312995 0.238349
vt 0.312968 0.755541
vt 0.295250 0.238404
vt 0.296137 0.755596
vt 0.277525 0.238574
vt 0.279291 0.755767
vt 0.259837 0.238854
vt 0.262415 0.756046
vt 0.242205 0.239231
vt 0.245494 0.756423
vt 0.224642 0.239692
vt 0.228516 0.756884
vt 0.207158 0.240218
vt 0.211468 0.757411
vt 0.189762 0.240791
vt 0.194342 0.757983
vt 0.172455 0.241386
vt 0.177131 0.758579
vt 0.155239 0.241983
vt 0.159830 0.759175
vt 0.138108 0.242557
vt 0.764219 0.757411
vt 0.899399 0.755780
vt 0.142438 0.759749
vt 0.121056 0.243087
vt 0.124960 0.760279
vt 0.104074 0.243552
vt 0.812588 0.238854
vt 0.677711 0.760279
vt 0.695190 0.759749
vt 0.712581 0.759175
vt 0.729882 0.758579
vt 0.747094 0.757983
vt 0.781267 0.756884
vt 0.798245 0.756423
vt 0.815166 0.756046
vt 0.832042 0.755767
vt 0.848888 0.755596
vt 0.865719 0.755541
vt 0.882551 0.755603
vt 0.916277 0.756065
vt 0.107401 0.760744
vt 0.673807 0.243087
vt 0.901215 0.238588
vt 0.883491 0.238411
vt 0.865746 0.238349
vt 0.848001 0.238404
vt 0.830276 0.238574
vt 0.794956 0.239231
vt 0.777393 0.239692
vt 0.759909 0.240218
vt 0.742513 0.240791
vt 0.725206 0.241386
vt 0.707990 0.241983
vt 0.690859 0.242557
vn 0.0980 0.0000 -0.9952
vn 0.2903 0.0000 -0.9569
vn 0.4714 0.0000 -0.8819
vn 0.6344 0.0000 -0.7730
vn 0.7730 0.0000 -0.6344
vn 0.8819 0.0000 -0.4714
vn 0.9569 0.0000 -0.2903
vn 0.9952 0.0000 -0.0980
vn 0.9952 0.0000 0.0980
vn 0.9569 0.0000 0.2903
vn 0.8819 0.0000 0.4714
vn 0.7730 0.0000 0.6344
vn 0.6344 0.0000 0.7730
vn 0.4714 0.0000 0.8819
vn 0.2903 0.0000 0.9569
vn 0.0980 0.0000 0.9952
vn -0.0980 0.0000 0.9952
vn -0.2903 0.0000 0.9569
vn -0.4714 0.0000 0.8819
vn -0.6344 0.0000 0.7730
vn -0.7730 0.0000 0.6344
vn -0.8819 0.0000 0.4714
vn -0.9569 0.0000 0.2903
vn -0.9952 0.0000 0.0980
vn -0.9952 0.0000 -0.0980
vn -0.9569 0.0000 -0.2903
vn -0.8819 0.0000 -0.4714
vn -0.7730 0.0000 -0.6344
vn -0.6344 0.0000 -0.7730
vn -0.4714 0.0000 -0.8819
vn 0.0000 1.0000 0.0000
vn -0.2903 0.0000 -0.9569
vn -0.0980 0.0000 -0.9952
vn 0.0000 -1.0000 0.0000
usemtl corn
s off
f 2/1/1 3/2/1 1/3/1
f 4/4/2 5/5/2 3/2/2
f 6/6/3 7/7/3 5/5/3
f 8/8/4 9/9/4 7/7/4
f 10/10/5 11/11/5 9/9/5
f 12/12/6 13/13/6 11/11/6
f 14/14/7 15/15/7 13/13/7
f 16/16/8 17/17/8 15/15/8
f 18/18/9 19/19/9 17/17/9
f 20/20/10 21/21/10 19/19/10
f 22/22/11 23/23/11 21/21/11
f 24/24/12 25/25/12 23/23/12
f 26/26/13 27/27/13 25/25/13
f 28/28/14 29/29/14 27/27/14
f 30/30/15 31/31/15 29/29/15
f 32/32/16 33/33/16 31/31/16
f 34/34/17 35/35/17 33/33/17
f 36/36/18 37/37/18 35/35/18
f 38/38/19 39/39/19 37/37/19
f 40/40/20 41/41/20 39/39/20
f 42/42/21 43/43/21 41/41/21
f 44/44/22 45/45/22 43/43/22
f 46/46/23 47/47/23 45/45/23
f 48/48/24 49/49/24 47/47/24
f 50/50/25 51/51/25 49/49/25
f 52/52/26 53/53/26 51/51/26
f 54/54/27 55/55/27 53/53/27
f 56/56/28 57/57/28 55/55/28
f 58/58/29 59/59/29 57/57/29
f 60/60/30 61/61/30 59/59/30
f 6/6/31 54/62/31 38/63/31
f 62/64/32 63/65/32 61/61/32
f 64/66/33 1/67/33 63/65/33
f 15/15/34 31/31/34 47/68/34
f 2/1/1 4/4/1 3/2/1
f 4/4/2 6/6/2 5/5/2
f 6/6/3 8/8/3 7/7/3
f 8/8/4 10/10/4 9/9/4
f 10/10/5 12/12/5 11/11/5
f 12/12/6 14/14/6 13/13/6
f 14/14/7 16/16/7 15/15/7
f 16/16/8 18/18/8 17/17/8
f 18/18/9 20/20/9 19/19/9
f 20/20/10 22/22/10 21/21/10
f 22/22/11 24/24/11 23/23/11
f 24/24/12 26/26/12 25/25/12
f 26/26/13 28/28/13 27/27/13
f 28/28/14 30/30/14 29/29/14
f 30/30/15 32/32/15 31/31/15
f 32/32/16 34/34/16 33/33/16
f 34/34/17 36/36/17 35/35/17
f 36/36/18 38/38/18 37/37/18
f 38/38/19 40/40/19 39/39/19
f 40/40/20 42/42/20 41/41/20
f 42/42/21 44/44/21 43/43/21
f 44/44/22 46/46/22 45/45/22
f 46/46/23 48/48/23 47/47/23
f 48/48/24 50/50/24 49/49/24
f 50/50/25 52/52/25 51/51/25
f 52/52/26 54/54/26 53/53/26
f 54/54/27 56/56/27 55/55/27
f 56/56/28 58/58/28 57/57/28
f 58/58/29 60/60/29 59/59/29
f 60/60/30 62/64/30 61/61/30
f 6/6/31 4/4/31 2/1/31
f 2/1/31 64/69/31 6/6/31
f 64/69/31 62/70/31 6/6/31
f 62/70/31 60/71/31 54/62/31
f 60/71/31 58/72/31 54/62/31
f 58/72/31 56/73/31 54/62/31
f 54/62/31 52/74/31 50/75/31
f 50/75/31 48/76/31 46/77/31
f 46/77/31 44/78/31 42/79/31
f 42/79/31 40/80/31 46/77/31
f 40/80/31 38/63/31 46/77/31
f 38/63/31 36/81/31 30/30/31
f 36/81/31 34/34/31 30/30/31
f 34/34/31 32/32/31 30/30/31
f 30/30/31 28/28/31 26/26/31
f 26/26/31 24/24/31 22/22/31
f 22/22/31 20/20/31 18/18/31
f 18/18/31 16/16/31 22/22/31
f 16/16/31 14/14/31 22/22/31
f 14/14/31 12/12/31 10/10/31
f 10/10/31 8/8/31 14/14/31
f 8/8/31 6/6/31 14/14/31
f 54/62/31 50/75/31 38/63/31
f 50/75/31 46/77/31 38/63/31
f 30/30/31 26/26/31 22/22/31
f 6/6/31 62/70/31 54/62/31
f 38/63/31 30/30/31 6/6/31
f 30/30/31 22/22/31 6/6/31
f 22/22/31 14/14/31 6/6/31
f 62/64/32 64/66/32 63/65/32
f 64/66/33 2/82/33 1/67/33
f 63/83/34 1/3/34 3/2/34
f 3/2/34 5/5/34 7/7/34
f 7/7/34 9/9/34 11/11/34
f 11/11/34 13/13/34 7/7/34
f 13/13/34 15/15/34 7/7/34
f 15/15/34 17/17/34 19/19/34
f 19/19/34 21/21/34 15/15/34
f 21/21/34 23/23/34 15/15/34
f 23/23/34 25/25/34 27/27/34
f 27/27/34 29/29/34 23/23/34
f 29/29/34 31/31/34 23/23/34
f 31/31/34 33/33/34 35/35/34
f 35/35/34 37/84/34 39/85/34
f 39/85/34 41/86/34 43/87/34
f 43/87/34 45/88/34 47/68/34
f 47/68/34 49/89/34 51/90/34
f 51/90/34 53/91/34 47/68/34
f 53/91/34 55/92/34 47/68/34
f 55/92/34 57/93/34 59/94/34
f 59/94/34 61/95/34 63/83/34
f 63/83/34 3/2/34 7/7/34
f 31/31/34 35/35/34 47/68/34
f 35/35/34 39/85/34 47/68/34
f 39/85/34 43/87/34 47/68/34
f 55/92/34 59/94/34 47/68/34
f 59/94/34 63/83/34 47/68/34
f 63/83/34 7/7/34 15/15/34
f 15/15/34 23/23/34 31/31/34
f 63/83/34 15/15/34 47/68/34
