# Blender v2.79 (sub 0) OBJ File: 'Pinball3.blend'
# www.blender.org
mtllib CubeBumpN2S.mtl
o CubeBumper.002_Cube.044
v 0.250000 0.137500 -0.269766
v 0.250000 0.362500 -0.269766
v -0.230234 0.137500 -0.750000
v -0.230234 0.362500 -0.750000
v 0.730234 0.137500 -0.750000
v 0.730234 0.362500 -0.750000
v 0.250000 0.137500 -1.230234
v 0.250000 0.362500 -1.230234
vt 0.000000 0.666667
vt 0.333333 0.333333
vt 0.333333 0.666667
vt 0.333333 0.000000
vt 0.666667 0.333333
vt 0.666667 0.666667
vt 0.333333 0.333333
vt 0.000000 0.000000
vt 0.333333 0.333333
vt 0.000000 0.333333
vt 0.666667 0.000000
vt 1.000000 0.333333
vt 0.666667 0.333333
vt 0.000000 1.000000
vt 0.333333 0.666667
vt 0.333333 1.000000
vt 0.000000 0.333333
vt 0.666667 0.000000
vt 0.333333 0.000000
vt 1.000000 0.000000
vn -0.7071 0.0000 0.7071
vn -0.7071 0.0000 -0.7071
vn 0.7071 0.0000 -0.7071
vn 0.7071 0.0000 0.7071
vn 0.0000 -1.0000 0.0000
vn 0.0000 1.0000 0.0000
usemtl CubeBumper.002
s off
f 2/1/1 3/2/1 1/3/1
f 4/4/2 7/5/2 3/2/2
f 8/6/3 5/7/3 7/5/3
f 6/8/4 1/9/4 5/10/4
f 7/11/5 1/12/5 3/13/5
f 4/14/6 6/15/6 8/16/6
f 2/1/1 4/17/1 3/2/1
f 4/4/2 8/18/2 7/5/2
f 8/6/3 6/15/3 5/7/3
f 6/8/4 2/19/4 1/9/4
f 7/11/5 5/20/5 1/12/5
f 4/14/6 2/1/6 6/15/6
o CubeBumper_Cube.043
v 0.250000 0.000000 -0.342550
v 0.250000 0.500000 -0.342550
v -0.157450 0.000000 -0.750000
v -0.157450 0.500000 -0.750000
v 0.657450 0.000000 -0.750000
v 0.657450 0.500000 -0.750000
v 0.250000 0.000000 -1.157450
v 0.250000 0.500000 -1.157450
vt 0.000000 0.666667
vt 0.333333 0.333333
vt 0.333333 0.666667
vt 0.333333 0.000000
vt 0.666667 0.333333
vt 0.666667 0.666667
vt 0.333333 0.333333
vt 0.000000 0.000000
vt 0.333333 0.333333
vt 0.000000 0.333333
vt 0.666667 0.000000
vt 1.000000 0.333333
vt 0.666667 0.333333
vt 0.000000 1.000000
vt 0.333333 0.666667
vt 0.333333 1.000000
vt 0.000000 0.333333
vt 0.666667 0.000000
vt 0.333333 0.000000
vt 1.000000 0.000000
vn -0.7071 0.0000 0.7071
vn -0.7071 0.0000 -0.7071
vn 0.7071 0.0000 -0.7071
vn 0.7071 0.0000 0.7071
vn 0.0000 -1.0000 0.0000
vn 0.0000 1.0000 0.0000
usemtl CubeBumper.001
s off
f 10/21/7 11/22/7 9/23/7
f 12/24/8 15/25/8 11/22/8
f 16/26/9 13/27/9 15/25/9
f 14/28/10 9/29/10 13/30/10
f 15/31/11 9/32/11 11/33/11
f 12/34/12 14/35/12 16/36/12
f 10/21/7 12/37/7 11/22/7
f 12/24/8 16/38/8 15/25/8
f 16/26/9 14/35/9 13/27/9
f 14/28/10 10/39/10 9/29/10
f 15/31/11 13/40/11 9/32/11
f 12/34/12 10/21/12 14/35/12
