# Blender v2.79 (sub 0) OBJ File: 'PoolTable.blend'
# www.blender.org
mtllib TLPocket.mtl
o TLPocket_Plane.010
v -2.200000 -1.019387 -5.900000
v -4.200000 -1.019387 -5.900000
v -2.200000 -1.019387 -7.900000
v -4.200000 -1.019387 -7.900000
v -2.200000 -0.919387 -7.900000
v -2.200000 -0.919387 -5.900000
v -4.200000 -0.919387 -5.900000
v -4.200000 -0.919387 -7.900000
vt 0.000000 1.000000
vt 1.000000 0.000000
vt 0.000000 0.000000
vt 1.000000 0.000000
vt 0.000000 1.000000
vt 0.000000 0.000000
vt 1.000000 1.000000
vt 1.000000 1.000000
vn 0.0000 1.0000 0.0000
vn 0.0000 -1.0000 0.0000
vn 0.0000 0.0000 -1.0000
vn 1.0000 0.0000 0.0000
vn -1.0000 0.0000 0.0000
vn 0.0000 0.0000 1.0000
usemtl Pocket
s off
f 3/1/1 2/2/1 1/3/1
f 7/4/2 5/5/2 6/6/2
f 2/2/3 6/6/3 1/3/3
f 4/7/4 7/4/4 2/2/4
f 1/3/5 5/5/5 3/1/5
f 3/1/6 8/8/6 4/7/6
f 3/1/1 4/7/1 2/2/1
f 7/4/2 8/8/2 5/5/2
f 2/2/3 7/4/3 6/6/3
f 4/7/4 8/8/4 7/4/4
f 1/3/5 6/6/5 5/5/5
f 3/1/6 5/5/6 8/8/6
