# Blender v2.79 (sub 0) OBJ File: 'Pinball3.blend'
# www.blender.org
mtllib WallBump.mtl
o RecBumper.001_Cube.054
v -1.979458 0.156250 0.133156
v -1.979458 0.343750 0.133156
v -1.979458 0.156250 0.534104
v -1.979458 0.343750 0.534104
v -2.087499 0.156250 0.133156
v -2.087499 0.343750 0.133156
v -2.087499 0.156250 0.534104
v -2.087499 0.343750 0.534104
v -1.979457 0.343750 0.821423
v -1.979457 0.156250 0.821423
v -2.087499 0.156250 0.821423
v -2.087499 0.343750 0.821423
v -1.979457 0.343750 1.133732
v -1.979457 0.156250 1.133732
v -2.087499 0.156250 1.133732
v -2.087499 0.343750 1.133732
vt 1.000000 0.000000
vt 0.750000 0.286080
vt 0.750000 0.000000
vt 0.500000 0.427840
vt 0.750000 0.222835
vt 0.750000 0.427840
vt 0.500000 0.713920
vt 0.000000 0.713920
vt 0.250000 1.000000
vt 0.000000 1.000000
vt 0.250000 0.286080
vt 0.500000 0.000000
vt 0.500000 0.286080
vt 0.250000 0.427840
vt 0.000000 0.427840
vt 0.500000 0.222835
vt 0.750000 0.000000
vt 0.250000 0.491085
vt 0.000000 0.222835
vt 0.250000 0.222835
vt 1.000000 0.286080
vt 0.750000 0.491085
vt 0.250000 1.000000
vt 0.500000 0.713920
vt 0.500000 1.000000
vt 0.500000 0.491085
vt 0.250000 0.713920
vt 0.000000 0.000000
vt 0.250000 0.000000
vt 1.000000 0.491085
vt 0.750000 0.713920
vt 0.750000 0.713920
vt 0.250000 0.713920
vt 0.250000 0.000000
vt 0.500000 0.000000
vt 0.250000 0.713920
vt 0.500000 0.713920
vt 1.000000 0.713920
vn 1.0000 0.0000 -0.0000
vn -1.0000 0.0000 0.0000
vn -0.0000 0.0000 -1.0000
vn 0.0000 -1.0000 0.0000
vn 0.0000 1.0000 0.0000
vn 0.0000 0.0000 1.0000
usemtl RecBumper.001
s off
f 2/1/1 3/2/1 1/3/1
f 7/4/2 12/5/2 8/6/2
f 8/6/2 5/7/2 7/4/2
f 6/8/3 1/9/3 5/10/3
f 7/11/4 1/12/4 3/13/4
f 4/14/5 6/8/5 8/15/5
f 11/16/2 16/17/2 12/5/2
f 3/13/4 11/18/4 7/11/4
f 4/14/5 12/19/5 9/20/5
f 4/21/1 10/22/1 3/2/1
f 13/23/6 15/24/6 14/25/6
f 10/26/4 15/27/4 11/18/4
f 9/20/5 16/28/5 13/29/5
f 9/30/1 14/31/1 10/22/1
f 2/1/1 4/21/1 3/2/1
f 7/4/2 11/16/2 12/5/2
f 8/6/2 6/32/2 5/7/2
f 6/8/3 2/33/3 1/9/3
f 7/11/4 5/34/4 1/12/4
f 4/14/5 2/33/5 6/8/5
f 11/16/2 15/35/2 16/17/2
f 3/13/4 10/26/4 11/18/4
f 4/14/5 8/15/5 12/19/5
f 4/21/1 9/30/1 10/22/1
f 13/23/6 16/36/6 15/24/6
f 10/26/4 14/37/4 15/27/4
f 9/20/5 12/19/5 16/28/5
f 9/30/1 13/38/1 14/31/1
o RecBumper_Cube.053
v -2.943279 0.156250 -0.878627
v -2.943279 0.343750 -0.878627
v -2.404603 0.156250 -0.339952
v -2.404603 0.343750 -0.339952
v -3.019675 0.156250 -0.802230
v -3.019675 0.343750 -0.802230
v -2.481000 0.156250 -0.263555
v -2.481000 0.343750 -0.263555
v -2.018589 0.343750 0.046061
v -2.018589 0.156250 0.046061
v -2.094986 0.156250 0.122458
v -2.094986 0.343750 0.122458
vt 0.444445 0.500000
vt 0.666667 0.208726
vt 0.666667 0.500000
vt 0.000000 0.708726
vt 0.222222 0.500000
vt 0.222222 0.708726
vt 0.000000 1.000000
vt 0.222222 0.500000
vt 0.444444 0.791274
vt 0.222222 0.791274
vt 0.222222 0.291274
vt 0.444444 0.000000
vt 0.444444 0.291274
vt 0.222222 0.208726
vt 0.000000 0.500000
vt 0.000000 0.208727
vt 0.444444 0.500000
vt 0.666667 0.791274
vt 0.444444 0.791274
vt 0.222222 0.500000
vt 0.000000 0.000000
vt 0.222222 0.000000
vt 0.444445 0.208726
vt 0.666667 0.000000
vt 0.000000 0.500000
vt 0.222222 1.000000
vt 0.222222 0.000000
vt 0.222222 0.500000
vt 0.666667 0.500000
vt 0.444444 0.500000
vt 0.444445 0.000000
vn 0.7071 0.0000 -0.7071
vn -0.7071 0.0000 0.7071
vn -0.7071 0.0000 -0.7071
vn 0.0000 -1.0000 0.0000
vn 0.0000 1.0000 0.0000
vn 0.7071 0.0000 0.7071
usemtl RecBumper
s off
f 18/39/7 19/40/7 17/41/7
f 23/42/8 28/43/8 24/44/8
f 24/44/8 21/45/8 23/42/8
f 22/46/9 17/47/9 21/48/9
f 23/49/10 17/50/10 19/51/10
f 20/52/11 22/53/11 24/54/11
f 25/55/12 27/56/12 26/57/12
f 19/51/10 27/58/10 23/49/10
f 20/52/11 28/59/11 25/60/11
f 20/61/7 26/62/7 19/40/7
f 18/39/7 20/61/7 19/40/7
f 23/42/8 27/63/8 28/43/8
f 24/44/8 22/64/8 21/45/8
f 22/46/9 18/39/9 17/47/9
f 23/49/10 21/65/10 17/50/10
f 20/52/11 18/66/11 22/53/11
f 25/55/12 28/67/12 27/56/12
f 19/51/10 26/68/10 27/58/10
f 20/52/11 24/54/11 28/59/11
f 20/61/7 25/69/7 26/62/7
